<svg xmlns="http://www.w3.org/2000/svg" width="512" height="512" viewBox="0 0 454.014 454.014">
  <g fill="#FFF">
    <path d="M20.959 195.188v5.462c2.673-5.083 5.743-9.944 9.265-14.551 13.018-17.02 31.621-30.562 55.567-40.627.21-.084.405-.18.619-.264 25.465-10.6 56.94-17.288 94.305-19.933 15.018-1.062 29.43-1.311 42.495-1.138 2.591.03 5.125.076 7.61.148 29.783.789 50.666 3.648 50.975 3.695l-.017.134C419.045 143 433.067 195.188 433.067 195.188V73.83C418.793-10.846 223.21.508 223.21.508v.158C186.147 1.73 24.322 10.021 20.959 73.83V95.3s-.03.395 0 1.062v97.777c-.029.659 0 1.049 0 1.049z"/>
    <path d="M194.88 163.786c-40.609-3.342-71.701-8.674-95.569-14.938-25.289 8.933-47.754 22.279-62.86 42.032-6.69 8.742-11.672 18.464-15.018 29.124 9.976 68.708 209.38 69.986 209.38 69.986v-.253c26.91 2.185 49.571 5.711 68.591 10.075 6.82 1.37 13.874 3.189 20.959 5.526 3.763 1.142 7.414 2.3 10.816 3.502-.221.076-.474.156-.706.24 15.642 6.376 30.958 15.661 43.718 29.187 10.936 11.589 18.963 25.383 24.232 41.168V236.983c-3.391-64.583-169.167-72.291-203.543-73.197z"/>
    <path d="M394.628 394.929c-4.4-20.326-13.104-37.466-26.104-51.251-14.339-15.196-32.444-24.718-50.485-30.657-30.433 8.933-72.13 15.785-129.456 17.104l70.647 49.035-70.647 74.854c-.009 0 177.793-1.134 206.045-59.085z"/>
  </g>
</svg>
